<?xml version="1.0" encoding="UTF-8"?>
<svg viewBox="0 0 94 41" xmlns="http://www.w3.org/2000/svg">
<title>@1xsangam</title>
<desc>Created with Sketch.</desc>
<g>
<title>background</title>
<rect x="-1" y="-1" width="582" height="402" fill="none"/>
</g>
<g>
<title>Layer 1</title>
<g fill="none" fill-rule="evenodd">
<g fill="#fff">
<path d="m1.2547 22.368c0.53771 0.38369 1.892 1.7165 4.0627 1.7165 2.2305 0 3.286-1.2722 3.286-2.7262 0-3.6349-8.4042-1.7569-8.4042-7.391 0-2.5242 2.0712-4.7658 5.7555-4.7658 1.892 0 3.4453 0.52504 5.0186 1.9184-0.43814 0.78757-1.1153 1.6155-1.9517 1.1107-0.61737-0.38368-1.4936-0.86834-3.0072-0.86834-1.9119 0-3.1267 1.0703-3.1267 2.4031 0 3.332 8.4042 1.8175 8.4042 7.1083 0 3.0089-2.1708 5.311-6.1339 5.311-1.9517 0-3.9432-0.94911-5.158-1.878l1.2547-1.9386z" fill-rule="nonzero"/>
<path d="m22.922 15.361c0-2.5646-1.1153-3.8571-3.2064-3.8571-1.633 0-2.589 0.54524-3.286 1.0299-0.93601 0.54524-1.7924 0.6866-2.4894-0.38368l-0.21907-0.38369c1.1152-1.2924 4.003-2.605 6.333-2.605 3.6843 0 5.6559 2.5242 5.6559 6.1996v10.501h-1.2746c-0.53771 0-0.83644-0.12116-0.99577-0.6866l-0.31864-1.5146c-1.6928 1.5549-3.1665 2.5041-5.636 2.5041-2.5292 0-4.5805-1.3934-4.5805-4.3821 0-2.9483 2.3898-5.8159 7.1894-5.8159 0.83644 0 1.7924 0.16155 2.808 0.52505v-1.1309h0.01992zm-7.2691 6.2804c0 1.4944 1.175 2.181 2.6487 2.181 2.0114 0 3.286-1.1914 4.6004-2.605v-2.8272c-0.93601-0.38369-1.7924-0.58563-2.5292-0.58563-3.1466 0.02019-4.7199 1.6963-4.7199 3.8369z" fill-rule="nonzero"/>
<path d="m37.421 15.421c0-2.6252-1.0555-3.9176-3.067-3.9176-1.414 0-2.589 0.80776-3.5847 2.1406v12.238h-2.8877v-16.418h1.8322c0.37839 0 0.53771 0.12116 0.63729 0.64621l0.2589 1.5953c1.175-1.4338 2.6288-2.5041 4.5805-2.5041 3.5848 0 5.1182 3.6955 5.1182 6.2198v10.44h-0.63728c-1.3343 0-2.2305-0.44427-2.2305-2.2617v-8.1786h-0.01992z" fill-rule="nonzero"/>
<path d="m66.975 15.361c0-2.5646-1.1152-3.8571-3.2064-3.8571-1.633 0-2.589 0.54524-3.286 1.0299-0.93602 0.54524-1.7924 0.6866-2.4894-0.38368l-0.21907-0.38369c1.1153-1.2924 4.003-2.605 6.333-2.605 3.6843 0 5.6559 2.5242 5.6559 6.1996v10.501h-1.2746c-0.53771 0-0.83644-0.12116-0.99576-0.6866l-0.31865-1.5146c-1.6928 1.5549-3.1665 2.5041-5.636 2.5041-2.5292 0-4.5805-1.3934-4.5805-4.3821 0-2.9483 2.3898-5.8159 7.1894-5.8159 0.83644 0 1.7924 0.16155 2.808 0.52505v-1.1309h0.01992zm-7.2691 6.2804c0 1.4944 1.175 2.181 2.6487 2.181 2.0114 0 3.286-1.1914 4.6004-2.605v-2.8272c-0.93601-0.38369-1.7924-0.58563-2.5292-0.58563-3.1466 0.02019-4.7199 1.6963-4.7199 3.8369z" fill-rule="nonzero"/>
<path d="m93.94 25.862h-0.63728c-1.3343 0-2.2305-0.44427-2.2305-2.2617v-8.1786c0-2.605-1.1551-3.9176-3.2263-3.9176-1.9119 0-3.4852 1.2924-3.4852 3.9176v10.44h-2.8877v-10.44c0-2.6252-1.0555-3.9176-3.067-3.9176-1.414 0-2.589 0.80776-3.5848 2.1406v12.238h-2.8877v-16.418h1.8322c0.37839 0 0.53771 0.12116 0.63729 0.64621l0.2589 1.5953c1.175-1.4338 2.6288-2.5041 4.5805-2.5041 2.1708 0 3.4852 1.3328 4.1025 3.4128 0.95593-2.3627 3.067-3.4128 5.178-3.4128 3.4254 0 5.4369 2.2012 5.4369 6.2198v10.44h-0.01992z" fill-rule="nonzero"/>
<path d="m48.912 24.892c-2.1708 0-3.4254-0.26253-3.4254-1.4944 0-0.42408 0.31864-0.90873 0.95593-1.3328 0.83644 0.28272 1.7326 0.44427 2.6487 0.44427 4.0627 0 6.9703-2.7262 6.9703-6.6236 0-1.454-0.43813-2.7262-1.175-3.7965 4.1623-2.3425 1.0555-7.1891-1.2746-6.24-1.2347 0.48465-0.63728 2.3829 0.65721 2.1406h0.05974c0.5178-0.08077 0.93602 0.3433 0.89619 0.86835-0.15932 1.6357-1.4737 1.8377-2.6686 1.1914-1.0356-0.56544-2.2305-0.88854-3.4453-0.88854-4.1026 0-7.0102 2.6656-7.0102 6.7448 0 2.181 0.99576 3.9176 2.4894 5.0889-1.2148 0.64621-1.9517 1.878-1.9517 2.9887 0 2.3425 2.3898 3.4734 6.2136 3.4734 3.0072 0 5.5364 0.38369 5.5364 2.5242 0 1.5953-1.8521 2.8474-5.0186 2.8474-3.525 0-5.178-1.0703-5.2776-2.4233 0-0.90873-0.73686-1.9386-2.3898-1.9386h-0.47796v1.8175c0 2.605 2.6487 4.9879 8.0856 4.9879 5.1182 0 8.0856-2.7262 8.0856-5.4726 0-4.1196-4.242-4.9072-8.4839-4.9072zm0.19916-13.368c2.6288 0 4.0627 1.7569 4.0627 4.4831 0 2.4031-1.414 4.2206-4.0627 4.2206-2.589 0-4.0229-1.8175-4.0229-4.2206-0.01992-2.7262 1.3941-4.4831 4.0229-4.4831z"/>
<path d="m72.89 34.485c-0.29873 0-0.55763-0.26253-0.55763-0.56544 0-0.3231 0.23899-0.56543 0.55763-0.56543 0.29873 0 0.55763 0.24233 0.55763 0.56543 0 0.30291-0.2589 0.56544-0.55763 0.56544z" fill-rule="nonzero"/>
<path d="m79.024 33.818c-0.47797 0.56544-1.2148 0.86835-2.0911 0.86835-1.3144 0-2.4098-1.0097-2.4098-2.7464 0-1.5953 0.97585-2.7262 2.5691-2.7262 0.61737 0 1.3343 0.22214 1.6928 0.64621l-0.07967 0.16155c-0.21906 0.40388-0.49788 0.30291-0.6572 0.20194-0.19915-0.12116-0.47796-0.26252-0.89619-0.26252-1.0356 0-1.6729 0.78757-1.6729 2.0194 0 1.2924 0.69704 2.0194 1.633 2.0194 0.59746 0 1.0754-0.40388 1.4737-0.70679l0.43814 0.52504z" fill-rule="nonzero"/>
<path d="m84.998 31.94c0 1.6761-0.97585 2.7464-2.4894 2.7464-1.5534 0-2.4894-1.0703-2.4894-2.7464 0-1.6559 0.95593-2.7262 2.4894-2.7262 1.5136 0 2.4894 1.0501 2.4894 2.7262zm-0.95594 0c0-1.252-0.49788-1.9992-1.5335-1.9992s-1.5534 0.74718-1.5534 1.9992 0.5178 2.0194 1.5534 2.0194 1.5335-0.76737 1.5335-2.0194z" fill-rule="nonzero"/>
<path d="m93.482 34.586h-0.19915c-0.43813 0-0.71695-0.14136-0.71695-0.72699v-2.6454c0-0.82795-0.37839-1.2722-1.0356-1.2722-0.61737 0-1.1352 0.42407-1.1352 1.2722v3.3724h-0.93602v-3.3724c0-0.84815-0.33856-1.2722-0.99576-1.2722-0.45805 0-0.83644 0.26252-1.1551 0.68659v3.9378h-0.93601v-5.2908h0.59746c0.11949 0 0.17923 0.04039 0.19915 0.20194l0.07966 0.50485c0.37839-0.46446 0.85635-0.80776 1.4737-0.80776 0.69703 0 1.1352 0.42408 1.3144 1.0905 0.31865-0.76737 0.99577-1.0905 1.6729-1.0905 1.0953 0 1.7525 0.70679 1.7525 2.0194v3.3926h0.01991z" fill-rule="nonzero"/>
</g>
</g>
</g>
</svg>
